<mxfile host="65bd71144e">
    <diagram id="_omUhVxIOnVI3OGgsmVV" name="Page-1">
        <mxGraphModel dx="654" dy="609" grid="1" gridSize="10" guides="1" tooltips="1" connect="1" arrows="1" fold="1" page="1" pageScale="1" pageWidth="827" pageHeight="1169" math="0" shadow="0">
            <root>
                <mxCell id="0"/>
                <mxCell id="1" parent="0"/>
                <mxCell id="2" value="" style="rounded=0;whiteSpace=wrap;html=1;" vertex="1" parent="1">
                    <mxGeometry x="40" y="40" width="560" height="420" as="geometry"/>
                </mxCell>
                <mxCell id="3" value="" style="rounded=0;whiteSpace=wrap;html=1;" vertex="1" parent="1">
                    <mxGeometry x="40" y="40" width="560" height="80" as="geometry"/>
                </mxCell>
                <mxCell id="4" value="" style="line;strokeWidth=2;html=1;fontSize=17;" vertex="1" parent="1">
                    <mxGeometry x="50" y="60" width="20" height="10" as="geometry"/>
                </mxCell>
                <mxCell id="5" value="" style="line;strokeWidth=2;html=1;fontSize=17;" vertex="1" parent="1">
                    <mxGeometry x="50" y="60" width="20" height="20" as="geometry"/>
                </mxCell>
                <mxCell id="6" value="" style="line;strokeWidth=2;html=1;fontSize=17;" vertex="1" parent="1">
                    <mxGeometry x="50" y="56" width="20" height="10" as="geometry"/>
                </mxCell>
                <mxCell id="7" value="&lt;font style=&quot;font-size: 17px&quot;&gt;Citation Machine&lt;/font&gt;" style="text;html=1;align=center;verticalAlign=middle;resizable=0;points=[];autosize=1;strokeColor=none;fillColor=none;" vertex="1" parent="1">
                    <mxGeometry x="80" y="56" width="140" height="20" as="geometry"/>
                </mxCell>
                <mxCell id="8" value="MLA Format" style="text;html=1;align=center;verticalAlign=middle;resizable=0;points=[];autosize=1;strokeColor=none;fillColor=none;" vertex="1" parent="1">
                    <mxGeometry x="100" y="100" width="80" height="20" as="geometry"/>
                </mxCell>
                <mxCell id="9" value="Chicago Format" style="text;html=1;align=center;verticalAlign=middle;resizable=0;points=[];autosize=1;strokeColor=none;fillColor=none;" vertex="1" parent="1">
                    <mxGeometry x="260" y="100" width="100" height="20" as="geometry"/>
                </mxCell>
                <mxCell id="10" value="APA Format" style="text;html=1;align=center;verticalAlign=middle;resizable=0;points=[];autosize=1;strokeColor=none;fillColor=none;" vertex="1" parent="1">
                    <mxGeometry x="440" y="100" width="80" height="20" as="geometry"/>
                </mxCell>
                <mxCell id="11" value="" style="shape=link;html=1;exitX=0;exitY=1;exitDx=0;exitDy=0;entryX=0.372;entryY=1.007;entryDx=0;entryDy=0;entryPerimeter=0;" edge="1" parent="1" source="3" target="3">
                    <mxGeometry width="100" relative="1" as="geometry">
                        <mxPoint x="90" y="120" as="sourcePoint"/>
                        <mxPoint x="190" y="120" as="targetPoint"/>
                    </mxGeometry>
                </mxCell>
                <mxCell id="12" value="Enter author's last name:" style="text;html=1;align=center;verticalAlign=middle;resizable=0;points=[];autosize=1;strokeColor=none;fillColor=none;" vertex="1" parent="1">
                    <mxGeometry x="50" y="140" width="150" height="20" as="geometry"/>
                </mxCell>
                <mxCell id="13" value="Enter author's first name" style="text;html=1;align=center;verticalAlign=middle;resizable=0;points=[];autosize=1;strokeColor=none;fillColor=none;" vertex="1" parent="1">
                    <mxGeometry x="50" y="190" width="150" height="20" as="geometry"/>
                </mxCell>
                <mxCell id="14" value="Enter title:" style="text;html=1;align=center;verticalAlign=middle;resizable=0;points=[];autosize=1;strokeColor=none;fillColor=none;" vertex="1" parent="1">
                    <mxGeometry x="50" y="240" width="70" height="20" as="geometry"/>
                </mxCell>
                <mxCell id="15" value="Enter publisher name:" style="text;html=1;align=center;verticalAlign=middle;resizable=0;points=[];autosize=1;strokeColor=none;fillColor=none;" vertex="1" parent="1">
                    <mxGeometry x="50" y="290" width="140" height="20" as="geometry"/>
                </mxCell>
                <mxCell id="16" value="select day:" style="text;html=1;align=center;verticalAlign=middle;resizable=0;points=[];autosize=1;strokeColor=none;fillColor=none;" vertex="1" parent="1">
                    <mxGeometry x="50" y="330" width="70" height="20" as="geometry"/>
                </mxCell>
                <mxCell id="17" value="select month:" style="text;html=1;align=center;verticalAlign=middle;resizable=0;points=[];autosize=1;strokeColor=none;fillColor=none;" vertex="1" parent="1">
                    <mxGeometry x="50" y="360" width="90" height="20" as="geometry"/>
                </mxCell>
                <mxCell id="18" value="select year:" style="text;html=1;align=center;verticalAlign=middle;resizable=0;points=[];autosize=1;strokeColor=none;fillColor=none;" vertex="1" parent="1">
                    <mxGeometry x="50" y="390" width="80" height="20" as="geometry"/>
                </mxCell>
                <mxCell id="19" value="Enter URL:" style="text;html=1;align=center;verticalAlign=middle;resizable=0;points=[];autosize=1;strokeColor=none;fillColor=none;" vertex="1" parent="1">
                    <mxGeometry x="50" y="410" width="80" height="20" as="geometry"/>
                </mxCell>
                <mxCell id="20" value="" style="line;strokeWidth=2;html=1;" vertex="1" parent="1">
                    <mxGeometry x="60" y="170" width="160" height="10" as="geometry"/>
                </mxCell>
                <mxCell id="22" value="" style="line;strokeWidth=2;html=1;" vertex="1" parent="1">
                    <mxGeometry x="60" y="220" width="160" height="10" as="geometry"/>
                </mxCell>
                <mxCell id="23" value="" style="line;strokeWidth=2;html=1;" vertex="1" parent="1">
                    <mxGeometry x="60" y="270" width="160" height="10" as="geometry"/>
                </mxCell>
                <mxCell id="24" value="" style="line;strokeWidth=2;html=1;" vertex="1" parent="1">
                    <mxGeometry x="60" y="320" width="160" height="10" as="geometry"/>
                </mxCell>
                <mxCell id="25" value="1" style="rounded=0;whiteSpace=wrap;html=1;" vertex="1" parent="1">
                    <mxGeometry x="140" y="360" width="20" height="20" as="geometry"/>
                </mxCell>
                <mxCell id="26" value="Janurary" style="rounded=0;whiteSpace=wrap;html=1;align=left;" vertex="1" parent="1">
                    <mxGeometry x="125" y="390" width="50" height="20" as="geometry"/>
                </mxCell>
                <mxCell id="27" value="" style="line;strokeWidth=2;html=1;" vertex="1" parent="1">
                    <mxGeometry x="60" y="440" width="160" height="10" as="geometry"/>
                </mxCell>
            </root>
        </mxGraphModel>
    </diagram>
</mxfile>